<svg xmlns="http://www.w3.org/2000/svg" version="1.1" xmlns:xlink="http://www.w3.org/1999/xlink" xmlns:svgjs="http://svgjs.dev/svgjs" viewBox="0 0 1422 800" opacity="0.76"><defs><linearGradient x1="50%" y1="0%" x2="50%" y2="100%" id="ccchaos-grad"><stop stop-color="hsl(177, 96%, 38%)" stop-opacity="1" offset="0%"></stop><stop stop-color="hsl(75, 100%, 24%)" stop-opacity="1" offset="100%"></stop></linearGradient></defs><g stroke-width="2" stroke="url(#ccchaos-grad)" fill="none" stroke-linecap="round"><path d="M728.76 -27.05C736.59 -27.39 744.29 -27.63 751.87 -27.78 759.43 -28.03 766.86 -28.16 774.15 -28.18 781.41 -28.27 788.52 -28.23 795.45 -28.04 802.36 -27.9 809.08 -27.59 815.6 -27.12 822.09 -26.66 828.36 -26 834.4 -25.16 843.27 -23.74 859.68 -19.73 867.19 -17.11 874.34 -14.12 887.26 -6.76 893.07 -2.38 898.63 2.4 908.87 13.35 913.71 19.49 917.03 23.76 920.32 28.25 923.63 32.94 927.17 37.71 930.81 42.68 934.61 47.82 938.75 53.03 943.14 58.4 947.81 63.93 952.93 69.49 958.42 75.19 964.32 81.01 970.72 86.85 977.57 92.8 984.88 98.84 992.7 104.88 1000.95 111 1009.63 117.19 1018.71 123.36 1028.12 129.6 1037.8 135.89 1047.69 142.14 1057.69 148.44 1067.69 154.79 1077.6 161.08 1087.3 167.42 1096.64 173.79 1105.57 180.11 1113.89 186.47 1121.49 192.86 1128.35 199.19 1134.26 205.56 1139.12 211.97 1143.02 218.33 1145.75 224.72 1147.27 231.17 1147.77 237.55 1147.09 243.99 1145.26 250.48 1142.61 256.92 1139 263.42 1134.57 269.99 1129.72 276.51 1124.4 283.1 1118.78 289.76 1113.33 296.38 1108.01 303.09 1103.04 309.87 1098.84 316.63 1095.37 323.47 1092.82 330.4 1091.52 337.32 1091.37 344.32 1092.47 351.43 1094.98 358.52 1098.75 365.71 1103.7 373.01 1109.87 380.29 1116.98 387.69 1124.82 395.2 1133.32 402.7 1142.08 410.32 1150.83 418.05 1159.42 425.78 1167.35 433.54 1174.36 441.32 1180.46 449.1 1185.22 456.91 1188.52 464.74 1190.46 472.56 1190.76 480.41 1189.44 488.27 1186.69 496.13 1182.42 504 1176.76 511.87 1170 519.73 1162.16 527.6 1153.46 535.44 1144.22 543.28 1134.54 551.09 1124.66 558.87 1114.86 566.62 1105.27 574.33 1096.07 581.97 1087.49 589.57 1079.61 597.1 1072.51 604.52 1066.38 611.89 1061.18 619.14 1056.91 626.25 1053.69 633.27 1051.37 640.14 1049.88 646.82 1049.31 653.39 1049.4 659.76 1050.02 665.89 1052.05 674.76 1057.48 690.88 1060.13 698.06 1063.14 710.2 1060.39 724.17 1056.45 727.34 1050.98 729.93 1035.89 733.34 1026.49 734.27 1019.62 734.78 1012.3 735.09 1004.59 735.23 996.59 735.44 988.28 735.55 979.75 735.62 971.04 735.86 962.19 736.13 953.24 736.48 944.22 737.12 935.17 737.92 926.14 738.92 917.11 740.32 908.13 741.99 899.24 743.97 890.4 746.43 881.66 749.24 873.04 752.42 864.5 756.13 856.08 760.22 847.78 764.7 839.57 769.68 831.48 775.03 823.5 780.71 815.6 786.81 807.8 793.18 800.1 799.76 792.46 806.62 784.9 813.59 777.41 820.59 769.97 827.68 762.58 834.66 755.25 841.44 747.95 848.09 740.68 854.39 733.45 860.25 726.23 865.75 719.03 870.66 711.86 874.91 704.69 878.6 697.54 881.51 690.4 883.58 683.27 884.96 676.22 885.43 669.28 885 662.33 883.87 655.48 881.87 648.73 879.03 641.98 875.58 635.33 871.39 628.78 866.51 622.23 861.17 615.79 855.27 609.45 848.9 603.11 842.25 596.89 835.28 590.77 828.05 584.66 820.76 578.65 813.36 572.76 805.93 566.86 798.62 561.07 791.41 555.39 784.34 549.69 777.56 544.09 771.01 538.59 764.73 533.06 758.85 527.62 753.3 522.27 748.08 516.86 743.31 511.53 738.9 506.27 734.82 500.93 731.2 495.64 727.91 490.41 724.91 482.43 721.16 466.47 715.31 458.45 713 450.29 711.16 433.88 707.8 425.66 706.07 417.35 704.33 400.91 699.97 392.85 697.22 384.89 694.11 369.65 686.33 362.46 681.61 357.79 678.23 353.31 674.55 349.04 670.57 344.84 666.46 340.85 662.04 337.07 657.34 333.38 652.52 329.88 647.42 326.59 642.06 323.36 636.59 320.32 630.88 317.45 624.94 314.6 618.9 311.92 612.66 309.38 606.23 306.84 599.72 304.42 593.04 302.14 586.21 299.82 579.32 297.62 572.29 295.55 565.15 293.43 557.96 291.44 550.67 289.59 543.28 287.71 535.87 285.98 528.38 284.42 520.82 282.85 513.25 281.47 505.62 280.29 497.94 279.12 490.25 278.17 482.52 277.43 474.76 276.73 467 276.24 459.21 275.98 451.39 275.74 443.58 275.72 435.74 275.89 427.89 276.08 420.04 276.44 412.26 276.97 404.55 277.49 396.85 278.15 389.22 278.96 381.66 279.74 374.1 280.67 366.61 281.73 359.19 282.76 351.76 283.95 344.39 285.29 337.09 286.63 329.78 288.14 322.52 289.82 315.32 291.53 308.1 293.43 300.94 295.53 293.83 297.67 286.69 300.01 279.6 302.54 272.55 305.12 265.47 307.89 258.44 310.85 251.45 313.83 244.42 316.97 237.43 320.26 230.48 323.55 223.5 326.96 216.55 330.48 209.65 333.96 202.71 337.53 195.81 341.18 188.96 344.75 182.08 348.39 175.24 352.1 168.46 355.71 161.66 359.4 154.91 363.14 148.24 366.8 141.55 370.54 134.94 374.36 128.42 378.13 121.9 382 115.48 385.98 109.16 389.95 102.88 394.05 96.71 398.29 90.67 402.57 84.68 407.01 78.83 411.61 73.14 416.29 67.52 421.15 62.07 426.2 56.8 431.35 51.62 436.69 46.63 442.22 41.85 447.86 37.16 453.7 32.7 459.71 28.45 465.84 24.32 472.14 20.41 478.61 16.74 485.17 13.17 491.89 9.84 498.75 6.75 505.69 3.76 512.76 1.01 519.94 -1.5 527.18 -3.94 534.52 -6.15 541.94 -8.14 549.41 -10.06 556.95 -11.78 564.55 -13.3 572.18 -14.79 579.86 -16.09 587.58 -17.2 595.32 -18.32 603.1 -19.28 610.89 -20.09 618.7 -20.93 626.54 -21.63 634.38 -22.21 642.23 -22.85 650.09 -23.38 657.96 -23.8 665.84 -24.31 673.71 -24.73 681.59 -25.06 689.47 -25.5 697.34 -25.85 705.2 -26.12 713.07 -26.51 720.92 -26.82 728.75 -27.05" stroke-dasharray="9 20" transform="rotate(0, 711, 400)" opacity="0.59"></path><path d="M722 -11.35C729.44 -11.7 736.73 -11.97 743.89 -12.15 751.03 -12.43 758.02 -12.61 764.84 -12.68 771.65 -12.82 778.28 -12.84 784.73 -12.73 791.16 -12.66 797.39 -12.43 803.42 -12.06 812.31 -11.41 828.97 -9.17 836.72 -7.53 844.18 -5.6 857.95 -0.48 864.3 2.71 870.44 6.3 881.98 14.85 887.49 19.8 893.08 25.14 904.45 37.11 910.45 43.71 914.75 48.26 919.22 53 923.9 57.93 928.94 62.93 934.25 68.1 939.88 73.43 945.93 78.8 952.33 84.32 959.1 89.97 966.31 95.64 973.9 101.43 981.86 107.33 990.21 113.23 998.89 119.23 1007.86 125.31 1017.08 131.38 1026.48 137.52 1035.99 143.72 1045.55 149.9 1055.05 156.14 1064.4 162.42 1073.52 168.67 1082.28 174.97 1090.57 181.3 1098.34 187.59 1105.44 193.92 1111.75 200.29 1117.3 206.61 1121.91 212.97 1125.49 219.37 1128.17 225.71 1129.76 232.1 1130.26 238.52 1129.87 244.9 1128.45 251.33 1126.05 257.8 1122.99 264.22 1119.16 270.7 1114.68 277.23 1109.95 283.72 1104.9 290.28 1099.7 296.89 1094.77 303.47 1090.07 310.12 1085.77 316.83 1082.27 323.52 1079.5 330.29 1077.62 337.13 1076.92 343.95 1077.29 350.86 1078.8 357.85 1081.6 364.82 1085.53 371.89 1090.51 379.04 1096.59 386.19 1103.48 393.42 1111.01 400.76 1119.12 408.09 1127.45 415.52 1135.74 423.04 1143.9 430.57 1151.44 438.1 1158.15 445.64 1164.04 453.18 1168.73 460.73 1172.08 468.28 1174.21 475.83 1174.84 483.38 1173.97 490.93 1171.79 498.47 1168.18 506 1163.26 513.5 1157.27 521 1150.21 528.48 1142.28 535.91 1133.76 543.33 1124.71 550.7 1115.36 558.01 1105.97 565.29 1096.63 572.5 1087.52 579.62 1078.87 586.7 1070.75 593.67 1063.25 600.52 1056.56 607.31 1050.65 613.95 1045.57 620.44 1041.43 626.85 1038.12 633.08 1035.59 639.1 1033.48 647.88 1033.3 664.07 1034.65 671.41 1038.88 684.22 1043.48 699.75 1043.39 703.6 1039.16 709.39 1024.89 714.94 1017.48 715.89 1011.95 716.48 1005.92 716.93 999.46 717.26 992.66 717.71 985.51 718.11 978.04 718.5 970.34 719.1 962.41 719.76 954.3 720.53 946.04 721.6 937.67 722.85 929.23 724.3 920.72 726.14 912.19 728.25 903.66 730.65 895.13 733.5 886.63 736.68 878.2 740.2 869.79 744.19 861.47 748.52 853.23 753.2 845.04 758.31 836.94 763.74 828.94 769.44 821 775.51 813.15 781.78 805.39 788.22 797.69 794.89 790.07 801.62 782.54 808.35 775.04 815.12 767.62 821.77 760.28 828.2 752.96 834.49 745.7 840.43 738.5 845.94 731.32 851.11 724.19 855.73 717.11 859.71 710.03 863.18 703 865.92 696.01 867.88 689.02 869.21 682.16 869.69 675.41 869.33 668.65 868.33 662.02 866.51 655.5 863.92 648.97 860.76 642.55 856.89 636.25 852.38 629.95 847.42 623.75 841.93 617.67 835.97 611.57 829.74 605.59 823.16 599.71 816.32 593.82 809.39 588.03 802.31 582.35 795.16 576.65 788.1 571.04 781.07 565.53 774.14 559.98 767.43 554.52 760.9 549.14 754.59 543.71 748.61 538.35 742.91 533.06 737.48 527.7 732.46 522.4 727.74 517.14 723.32 511.8 719.32 506.5 715.62 501.23 712.19 495.86 709.16 490.52 706.37 485.19 703.8 477.05 700.54 460.69 695.14 452.47 692.81 444.14 690.78 427.57 686.69 419.38 684.46 411.22 682.14 395.41 676.54 387.85 673.16 380.5 669.44 366.81 660.55 360.5 655.36 354.54 649.74 343.77 637.01 338.95 629.93 335.88 625.02 332.98 619.88 330.27 614.51 327.58 609.05 325.06 603.39 322.69 597.52 320.32 591.59 318.08 585.47 315.97 579.19 313.84 572.85 311.83 566.35 309.94 559.72 308.02 553.05 306.21 546.25 304.53 539.34 302.82 532.4 301.25 525.36 299.82 518.23 298.37 511.09 297.08 503.86 295.96 496.57 294.84 489.26 293.9 481.9 293.14 474.47 292.39 467.05 291.84 459.57 291.47 452.05 291.12 444.53 290.95 436.97 290.98 429.37 291.01 421.77 291.21 414.22 291.59 406.73 291.96 399.23 292.49 391.79 293.18 384.41 293.87 377.02 294.71 369.69 295.71 362.41 296.71 355.12 297.87 347.89 299.21 340.7 300.56 333.5 302.09 326.35 303.81 319.25 305.55 312.13 307.5 305.05 309.63 298.02 311.81 290.96 314.18 283.94 316.74 276.97 319.33 269.97 322.11 263 325.06 256.08 328.02 249.13 331.14 242.21 334.39 235.34 337.63 228.44 340.99 221.58 344.45 214.75 347.86 207.91 351.35 201.11 354.91 194.36 358.4 187.6 361.95 180.88 365.55 174.23 369.06 167.57 372.62 160.97 376.24 154.45 379.77 147.94 383.36 141.51 387.02 135.17 390.61 128.85 394.29 122.64 398.05 116.54 401.79 110.47 405.64 104.54 409.61 98.74 413.59 93 417.71 87.41 421.98 81.98 426.3 76.63 430.78 71.44 435.44 66.45 440.16 61.54 445.08 56.83 450.17 52.33 455.35 47.92 460.72 43.72 466.27 39.75 471.91 35.88 477.74 32.23 483.73 28.82 489.82 25.5 496.06 22.42 502.46 19.56 508.94 16.8 515.56 14.26 522.3 11.95 529.11 9.71 536.04 7.69 543.06 5.88 550.14 4.12 557.3 2.56 564.53 1.19 571.81 -0.14 579.15 -1.31 586.54 -2.32 593.96 -3.32 601.42 -4.18 608.91 -4.9 616.42 -5.65 623.96 -6.28 631.5 -6.79 639.07 -7.37 646.64 -7.84 654.2 -8.22 661.78 -8.69 669.36 -9.08 676.91 -9.39 684.48 -9.8 692.02 -10.14 699.54 -10.41 707.06 -10.79 714.55 -11.11 721.99 -11.35" stroke-dasharray="13 17" transform="rotate(3.392857142857143, 711, 400)" opacity="0.54"></path><path d="M713.85 4.34C720.88 3.98 727.77 3.69 734.51 3.48 741.25 3.17 747.82 2.96 754.23 2.84 760.62 2.65 766.85 2.58 772.89 2.63 781.84 2.71 798.77 3.58 806.74 4.42 814.49 5.48 829.04 8.64 835.86 10.79 842.54 13.27 855.25 19.49 861.37 23.25 867.56 27.4 880.03 37.01 886.47 42.45 891 46.25 895.64 50.27 900.45 54.49 905.52 58.8 910.81 63.31 916.34 68 922.2 72.77 928.34 77.71 934.78 82.81 941.57 87.97 948.68 93.28 956.11 98.72 963.87 104.2 971.93 109.81 980.27 115.53 988.86 121.27 997.65 127.1 1006.6 133.03 1015.66 138.97 1024.77 144.98 1033.83 151.06 1042.8 157.13 1051.58 163.27 1060.07 169.46 1068.22 175.63 1075.92 181.84 1083.05 188.11 1089.62 194.34 1095.46 200.62 1100.5 206.93 1104.78 213.21 1108.16 219.53 1110.57 225.88 1112.15 232.19 1112.76 238.55 1112.39 244.93 1111.28 251.29 1109.28 257.68 1106.48 264.11 1103.17 270.5 1099.25 276.94 1094.86 283.42 1090.35 289.88 1085.66 296.38 1080.94 302.93 1076.57 309.45 1072.49 316.04 1068.87 322.67 1066.05 329.29 1063.95 335.97 1062.7 342.71 1062.54 349.43 1063.38 356.23 1065.26 363.09 1068.3 369.94 1072.35 376.87 1077.34 383.86 1083.29 390.86 1089.96 397.92 1097.18 405.07 1104.9 412.21 1112.8 419.43 1120.66 426.73 1128.39 434.03 1135.56 441.32 1141.96 448.6 1147.64 455.88 1152.23 463.15 1155.61 470.4 1157.89 477.64 1158.81 484.87 1158.35 492.07 1156.69 499.26 1153.71 506.42 1149.48 513.54 1144.23 520.65 1137.95 527.71 1130.78 534.7 1122.98 541.68 1114.61 548.59 1105.85 555.41 1096.93 562.21 1087.95 568.9 1079.06 575.49 1070.48 582.03 1062.25 588.45 1054.51 594.73 1047.42 600.94 1040.97 607 1035.22 612.88 1030.29 618.69 1026.1 624.3 1022.64 629.71 1019.03 637.57 1015.91 651.93 1015.97 658.39 1020.51 676.33 1022.63 689.33 1021.35 691.72 1015.08 695.28 998.85 698.94 991.23 699.85 985.67 700.57 979.71 701.29 973.38 702.03 966.8 703.01 959.93 704.07 952.8 705.25 945.49 706.75 937.99 708.42 930.34 710.3 922.57 712.56 914.71 715.07 906.77 717.85 898.78 721.05 890.77 724.55 882.74 728.35 874.71 732.57 866.7 737.1 858.72 741.91 850.77 747.11 842.86 752.57 835.02 758.26 827.21 764.25 819.47 770.4 811.81 776.67 804.18 783.12 796.62 789.6 789.15 796.04 781.7 802.49 774.33 808.8 767.04 814.89 759.77 820.82 752.57 826.41 745.44 831.59 738.32 836.44 731.27 840.76 724.28 844.5 717.3 847.75 710.38 850.33 703.51 852.18 696.65 853.45 689.92 853.94 683.32 853.65 676.71 852.76 670.23 851.13 663.87 848.77 657.51 845.88 651.26 842.33 645.13 838.17 638.99 833.58 632.96 828.49 627.04 822.93 621.1 817.1 615.26 810.93 609.53 804.48 603.77 797.91 598.11 791.18 592.54 784.33 586.94 777.54 581.41 770.73 575.98 763.97 570.49 757.39 565.07 750.93 559.72 744.63 554.31 738.62 548.95 732.82 543.64 727.25 538.26 722.03 532.92 717.07 527.61 712.38 522.22 708.06 516.85 704 511.5 700.2 506.06 696.76 500.63 693.55 495.22 690.56 489.71 687.89 484.22 685.4 478.74 683.05 473.17 680.98 467.63 679 462.11 677.1 453.75 674.56 437.21 669.69 429.08 667.2 421.03 664.72 405.54 659.09 398.17 655.85 391.06 652.36 377.86 644.21 371.82 639.5 366.13 634.44 355.9 622.98 351.35 616.59 347.1 609.86 339.53 595.16 336.16 587.24 333.97 581.83 331.92 576.24 330 570.47 328.05 564.64 326.22 558.66 324.51 552.52 322.76 546.35 321.12 540.03 319.6 533.59 318.04 527.12 316.59 520.53 315.28 513.83 313.93 507.12 312.71 500.31 311.64 493.4 310.55 486.49 309.6 479.49 308.82 472.42 308.03 465.35 307.4 458.2 306.94 450.99 306.47 443.78 306.18 436.51 306.07 429.19 305.95 421.86 306.01 414.56 306.23 407.3 306.47 400.04 306.87 392.82 307.44 385.63 308.02 378.44 308.77 371.29 309.7 364.18 310.65 357.06 311.77 349.98 313.08 342.93 314.42 335.88 315.96 328.86 317.68 321.88 319.44 314.89 321.41 307.93 323.56 301 325.76 294.06 328.15 287.15 330.73 280.28 333.34 273.39 336.12 266.54 339.07 259.72 342.03 252.88 345.13 246.08 348.36 239.32 351.57 232.54 354.9 225.8 358.32 219.11 361.68 212.41 365.13 205.75 368.64 199.14 372.07 192.54 375.55 185.99 379.08 179.51 382.52 173.03 386 166.63 389.52 160.3 392.95 154 396.43 147.78 399.96 141.67 403.41 135.59 406.93 129.62 410.52 123.77 414.06 117.96 417.7 112.29 421.43 106.76 425.15 101.3 428.99 95.99 432.96 90.85 436.95 85.78 441.08 80.89 445.37 76.19 449.7 71.58 454.2 67.15 458.86 62.94 463.6 58.82 468.51 54.91 473.58 51.21 478.74 47.61 484.07 44.23 489.57 41.08 495.15 38.02 500.9 35.17 506.79 32.55 512.76 30.01 518.88 27.69 525.13 25.58 531.45 23.54 537.89 21.7 544.44 20.06 551.05 18.46 557.76 17.05 564.55 15.82 571.39 14.61 578.3 13.56 585.27 12.67 592.28 11.76 599.34 10.99 606.43 10.36 613.56 9.68 620.71 9.12 627.88 8.67 635.07 8.14 642.27 7.71 649.47 7.37 656.68 6.93 663.89 6.57 671.07 6.29 678.27 5.89 685.44 5.56 692.57 5.3 699.7 4.91 706.8 4.6 713.84 4.34" stroke-dasharray="15 15" transform="rotate(6.785714285714286, 711, 400)" opacity="0.66"></path><path d="M705.33 20.04C711.97 19.67 718.48 19.36 724.84 19.13 731.19 18.79 737.4 18.55 743.45 18.39 752.44 18.1 769.61 18.02 777.79 18.27 785.8 18.65 801.03 20.24 808.28 21.5 815.41 23.01 829.16 27.15 835.85 29.81 842.58 32.81 856.08 40.08 862.98 44.34 867.76 47.36 872.62 50.6 877.6 54.05 882.79 57.61 888.14 61.37 893.67 65.33 899.46 69.39 905.47 73.64 911.72 78.08 918.24 82.59 925.03 87.28 932.07 92.14 939.39 97.06 946.97 102.13 954.78 107.34 962.83 112.6 971.07 117.99 979.47 123.49 988.01 129.03 996.64 134.68 1005.29 140.42 1013.92 146.18 1022.46 152.03 1030.84 157.95 1039.02 163.88 1046.9 169.88 1054.38 175.94 1061.46 181.99 1068.01 188.09 1073.94 194.25 1079.28 200.39 1083.9 206.57 1087.71 212.79 1090.82 219 1093.08 225.24 1094.44 231.51 1095.09 237.77 1094.87 244.05 1093.8 250.37 1092.13 256.67 1089.73 263 1086.66 269.36 1083.25 275.7 1079.39 282.08 1075.18 288.49 1070.99 294.88 1066.72 301.31 1062.52 307.78 1058.74 314.23 1055.31 320.73 1052.35 327.27 1050.18 333.79 1048.71 340.37 1048.03 346.99 1048.39 353.6 1049.64 360.27 1051.83 366.98 1055.08 373.7 1059.21 380.46 1064.17 387.29 1069.98 394.11 1076.41 400.99 1083.32 407.93 1090.66 414.86 1098.14 421.86 1105.57 428.91 1112.89 435.96 1119.68 442.99 1125.78 449.99 1131.25 456.98 1135.73 463.95 1139.11 470.88 1141.51 477.8 1142.68 484.68 1142.59 491.52 1141.41 498.35 1139 505.12 1135.42 511.83 1130.89 518.53 1125.35 525.16 1118.93 531.71 1111.88 538.23 1104.21 544.67 1096.07 551 1087.71 557.3 1079.16 563.49 1070.59 569.55 1062.2 575.56 1054.02 581.44 1046.18 587.16 1038.84 592.83 1032.01 598.32 1025.74 603.64 1020.17 608.88 1015.25 613.93 1010.97 618.77 1005.99 625.79 1000.02 638.54 998.72 644.23 1001.27 665.82 1000.29 675.83 998.07 677.48 990.4 680.39 973.12 684.63 965.53 686.27 960.09 687.63 954.31 689.08 948.24 690.68 941.96 692.57 935.44 694.65 928.71 696.93 921.83 699.56 914.79 702.43 907.62 705.55 900.36 709.05 893 712.81 885.58 716.84 878.11 721.24 870.61 725.91 863.09 730.81 855.55 736.05 848.02 741.5 840.52 747.13 833.01 753.02 825.54 759.02 818.12 765.1 810.71 771.31 803.36 777.52 796.06 783.66 788.78 789.8 781.56 795.77 774.41 801.51 767.27 807.09 760.19 812.34 753.18 817.19 746.18 821.73 739.25 825.77 732.38 829.27 725.51 832.32 718.7 834.73 711.96 836.48 705.21 837.69 698.6 838.18 692.11 837.96 685.63 837.19 679.27 835.72 673.03 833.58 666.77 830.95 660.64 827.7 654.62 823.87 648.57 819.65 642.64 814.93 636.81 809.77 630.95 804.34 625.19 798.57 619.53 792.51 613.83 786.31 608.21 779.93 602.67 773.42 597.09 766.91 591.58 760.36 586.14 753.81 580.64 747.39 575.2 741.05 569.81 734.82 564.36 728.82 558.95 722.99 553.57 717.34 548.12 711.99 542.7 706.86 537.3 701.95 531.82 697.37 526.36 693.02 520.92 688.89 515.39 685.1 509.88 681.52 504.38 678.14 498.81 675.07 493.25 672.17 487.71 669.43 482.11 666.95 476.54 664.58 471.01 662.3 462.67 659.23 446.26 653.46 438.25 650.63 430.38 647.89 415.32 642.01 408.21 638.77 401.39 635.37 388.8 627.66 383.07 623.28 377.7 618.63 368.1 608.16 363.86 602.35 359.9 596.22 352.92 582.85 349.84 575.61 346.9 568.11 341.62 552.14 339.24 543.72 337.65 538.01 336.16 532.15 334.78 526.15 333.34 520.13 332.01 513.98 330.79 507.71 329.52 501.41 328.36 495.01 327.32 488.5 326.24 481.98 325.29 475.36 324.47 468.65 323.63 461.93 322.93 455.13 322.38 448.24 321.81 441.36 321.4 434.39 321.15 427.36 320.9 420.32 320.82 413.3 320.91 406.29 321.01 399.29 321.29 392.3 321.74 385.34 322.21 378.37 322.87 371.43 323.71 364.51 324.59 357.59 325.67 350.69 326.93 343.81 328.24 336.94 329.75 330.08 331.46 323.26 333.22 316.43 335.18 309.62 337.34 302.84 339.54 296.05 341.94 289.29 344.52 282.56 347.13 275.83 349.92 269.12 352.86 262.45 355.82 255.77 358.91 249.12 362.13 242.52 365.33 235.91 368.63 229.34 372.03 222.81 375.38 216.29 378.8 209.82 382.28 203.41 385.68 197.01 389.13 190.67 392.62 184.4 396.01 178.15 399.44 171.98 402.91 165.89 406.27 159.84 409.67 153.88 413.11 148.02 416.47 142.21 419.87 136.52 423.33 130.95 426.72 125.43 430.19 120.06 433.73 114.82 437.24 109.66 440.84 104.66 444.55 99.82 448.26 95.06 452.09 90.48 456.04 86.08 462.09 79.71 474.98 68.1 481.84 62.87 488.96 57.99 504.08 49.43 512.08 45.73 517.53 43.41 523.13 41.3 528.85 39.39 534.65 37.53 540.57 35.87 546.6 34.39 552.7 32.95 558.9 31.68 565.19 30.58 571.53 29.49 577.96 28.55 584.45 27.75 590.98 26.94 597.58 26.26 604.21 25.69 610.89 25.08 617.59 24.58 624.32 24.18 631.08 23.7 637.85 23.31 644.63 22.99 651.42 22.59 658.21 22.25 664.99 21.98 671.77 21.6 678.53 21.27 685.26 21.01 691.99 20.63 698.69 20.31 705.32 20.04" stroke-dasharray="3 19" transform="rotate(10.178571428571429, 711, 400)" opacity="0.19"></path><path d="M697.54 35.74C703.8 35.36 709.95 35.04 715.97 34.78 724.94 34.3 742.24 33.63 750.57 33.49 758.76 33.39 774.53 33.81 782.13 34.37 789.65 35.11 804.27 37.5 811.43 39.2 818.63 41.18 833.05 46.28 840.37 49.42 845.39 51.67 850.47 54.14 855.64 56.83 860.97 59.6 866.42 62.6 872.01 65.8 877.8 69.09 883.76 72.59 889.9 76.29 896.27 80.08 902.83 84.06 909.6 88.23 916.59 92.47 923.79 96.89 931.19 101.48 938.79 106.13 946.55 110.94 954.47 115.9 962.51 120.91 970.65 126.05 978.85 131.32 987.06 136.62 995.25 142.04 1003.35 147.57 1011.33 153.12 1019.11 158.76 1026.62 164.49 1033.86 170.24 1040.7 176.06 1047.09 181.94 1053.04 187.83 1058.41 193.79 1063.15 199.79 1067.31 205.8 1070.76 211.85 1073.45 217.94 1075.5 224.03 1076.77 230.16 1077.24 236.32 1077.1 242.47 1076.22 248.65 1074.62 254.87 1072.56 261.07 1069.9 267.31 1066.74 273.57 1063.35 279.82 1059.65 286.1 1055.73 292.41 1051.92 298.71 1048.14 305.04 1044.5 311.4 1041.32 317.75 1038.51 324.14 1036.2 330.55 1034.65 336.96 1033.77 343.41 1033.63 349.89 1034.43 356.36 1036.06 362.88 1038.52 369.43 1041.92 375.98 1046.11 382.57 1051.01 389.2 1056.67 395.83 1062.85 402.5 1069.44 409.21 1076.4 415.92 1083.48 422.67 1090.49 429.46 1097.4 436.25 1103.83 442.99 1109.63 449.69 1114.87 456.38 1119.22 463.03 1122.59 469.62 1125.09 476.2 1126.47 482.73 1126.7 489.19 1125.96 495.64 1124.07 502.01 1121.1 508.31 1117.24 514.6 1112.42 520.79 1106.74 526.89 1100.42 532.97 1093.46 538.94 1085.99 544.79 1078.22 550.61 1070.2 556.3 1062.04 561.86 1053.93 567.37 1045.93 572.73 1038.13 577.94 1030.7 583.09 1023.63 588.06 1017.02 592.86 1010.97 597.59 1005.45 602.12 1000.49 606.46 994.32 612.74 985.69 624.11 983.03 629.17 981.31 648.65 980.45 658.22 979 660.02 973.6 663.52 960.54 669.07 954.51 671.26 947.77 673.9 932.38 680.3 923.86 684.16 917.94 687.12 911.81 690.3 905.5 693.71 899.07 697.45 892.5 701.43 885.81 705.64 879.05 710.18 872.2 714.93 865.28 719.88 858.32 725.12 851.32 730.52 844.29 736.06 837.25 741.8 830.2 747.63 823.15 753.49 816.1 759.45 809.07 765.38 802.07 771.21 795.07 777.02 788.11 782.66 781.19 788.06 774.27 793.3 767.4 798.21 760.58 802.75 753.76 806.99 746.99 810.76 740.27 814.02 733.56 816.87 726.89 819.14 720.28 820.78 713.66 821.94 707.17 822.43 700.8 822.26 694.42 821.59 688.15 820.28 682 818.35 675.84 815.96 669.78 813 663.82 809.49 657.84 805.61 651.96 801.27 646.17 796.49 640.35 791.46 634.61 786.08 628.95 780.41 623.26 774.59 617.64 768.57 612.08 762.4 606.48 756.2 600.93 749.93 595.44 743.62 589.89 737.41 584.39 731.23 578.93 725.12 573.4 719.19 567.91 713.37 562.44 707.71 556.91 702.29 551.4 697.04 545.91 691.98 540.34 687.2 534.8 682.61 529.27 678.23 523.68 674.14 518.1 670.24 512.54 666.53 506.93 663.1 501.34 659.83 495.78 656.72 490.19 653.85 484.63 651.11 479.13 648.47 470.88 644.86 454.76 638.14 446.96 634.91 439.33 631.84 424.85 625.51 418.07 622.16 411.58 618.74 399.71 611.19 394.35 607.01 389.34 602.63 380.44 592.88 376.53 587.5 372.9 581.87 366.52 569.58 363.73 562.94 361.07 556.04 356.29 541.33 354.14 533.53 352.01 525.54 348.11 508.77 346.34 500.03 345.12 494.15 344 488.14 342.98 482.01 341.91 475.87 340.94 469.63 340.09 463.28 339.2 456.92 338.43 450.46 337.79 443.91 337.13 437.36 336.61 430.72 336.24 423.99 335.86 417.26 335.65 410.53 335.61 403.8 335.59 397.07 335.74 390.34 336.08 383.62 336.45 376.9 337.01 370.19 337.76 363.5 338.56 356.8 339.56 350.12 340.76 343.45 342.03 336.78 343.49 330.13 345.16 323.5 346.9 316.86 348.84 310.25 350.97 303.65 353.17 297.06 355.55 290.49 358.11 283.95 360.72 277.4 363.5 270.89 366.43 264.4 369.37 257.93 372.46 251.48 375.66 245.07 378.86 238.68 382.15 232.32 385.54 226.01 388.88 219.72 392.28 213.48 395.75 207.3 399.14 201.15 402.58 195.06 406.06 189.04 409.44 183.06 412.85 177.16 416.29 171.35 419.63 165.58 422.99 159.91 426.38 154.35 429.68 148.84 433.01 143.45 436.38 138.19 439.68 132.99 443.02 127.93 446.43 123.01 451.49 115.83 461.98 102.41 467.46 96.19 473.05 90.29 484.87 79.57 491.14 74.77 497.61 70.3 511.34 62.49 518.59 59.13 526.08 56.07 541.79 50.96 550 48.89 555.56 47.59 561.23 46.45 567 45.47 572.82 44.49 578.73 43.65 584.71 42.95 590.73 42.21 596.82 41.6 602.97 41.1 609.15 40.55 615.38 40.09 621.64 39.73 627.92 39.29 634.24 38.93 640.56 38.64 646.91 38.26 653.26 37.94 659.61 37.67 665.96 37.3 672.31 36.99 678.63 36.72 684.96 36.35 691.27 36.02 697.53 35.75" stroke-dasharray="17 21" transform="rotate(13.571428571428571, 711, 400)" opacity="0.37"></path><path d="M691.44 51.45C700.28 50.89 717.5 49.94 725.87 49.58 734.15 49.19 750.27 48.82 758.11 48.89 765.9 49.05 781.17 50.08 788.71 51 796.28 52.12 811.44 55.36 819.11 57.49 829.65 60.67 840.44 64.67 851.61 69.49 863.38 74.65 875.71 80.64 888.67 87.4 902.31 94.51 916.59 102.37 931.44 110.89 946.72 119.7 962.25 129.12 977.75 139.06 992.96 149.21 1007.48 159.8 1020.83 170.76 1032.85 181.82 1042.95 193.2 1050.67 204.83 1056.26 216.48 1059.1 228.34 1059.12 240.36 1057.18 252.37 1052.92 264.52 1046.83 276.78 1043.59 282.9 1040.14 289.05 1036.59 295.23 1033.23 301.4 1029.96 307.59 1026.9 313.81 1024.32 320.03 1022.13 326.27 1020.44 332.53 1019.47 338.79 1019.13 345.08 1019.48 351.4 1020.68 357.71 1022.62 364.05 1025.3 370.41 1028.82 376.77 1033.03 383.16 1037.85 389.58 1043.33 395.99 1049.26 402.43 1055.53 408.89 1062.13 415.36 1068.8 421.84 1075.4 428.35 1081.91 434.85 1087.99 441.3 1093.49 447.68 1098.5 454.06 1102.72 460.37 1106.05 466.61 1108.61 472.85 1110.17 479.01 1110.69 485.09 1110.33 491.16 1108.93 497.15 1106.52 503.03 1103.29 508.91 1099.15 514.68 1094.18 520.34 1088.59 525.98 1082.34 531.5 1075.56 536.9 1068.43 542.26 1060.97 547.49 1053.3 552.57 1045.58 557.62 1037.86 562.51 1030.24 567.24 1015.77 576.56 1002.58 585.18 991.09 593.04 981.81 600.66 974.49 607.49 969 613.49 964.5 621.76 961.64 634.31 960.8 638.94 959.24 643.37 949.45 651.96 940.65 657.03 933.54 661.42 925.16 666.36 915.66 671.97 905.55 678.76 894.55 686.35 882.85 694.72 876.87 699.34 870.76 704.13 864.54 709.08 858.25 714.27 851.88 719.59 845.44 725 838.97 730.58 832.45 736.2 825.89 741.83 819.31 747.53 812.71 753.16 806.11 758.69 799.49 764.17 792.88 769.47 786.27 774.54 779.67 779.44 773.08 784.03 766.51 788.26 759.95 792.21 753.4 795.72 746.89 798.75 740.37 801.41 733.89 803.53 727.43 805.08 720.97 806.18 714.62 806.67 708.36 806.55 702.1 805.99 695.93 804.82 689.86 803.08 683.78 800.92 677.78 798.23 671.87 795.03 665.95 791.48 660.09 787.49 654.32 783.09 648.51 778.44 642.78 773.45 637.11 768.16 631.4 762.73 625.75 757.08 620.15 751.25 614.51 745.39 608.92 739.42 603.36 733.38 597.76 727.4 592.18 721.42 586.64 715.47 575.41 704.01 564.26 692.93 553.19 682.41 541.92 672.83 530.72 663.92 519.62 655.69 508.4 648.46 497.34 641.81 486.51 635.63 475.71 630.27 465.27 625.16 455.28 620.18 445.52 615.7 436.34 611.1 427.83 606.26 419.71 601.64 412.33 596.58 405.75 591.01 399.55 585.45 394.11 579.27 389.43 572.43 384.97 565.49 381.13 557.87 377.86 549.56 375.45 543.17 371.14 529.54 369.18 522.3 367.23 514.87 363.59 499.25 361.91 491.08 360.74 485.58 359.64 479.94 358.63 474.18 357.55 468.42 356.57 462.53 355.67 456.54 354.73 450.53 353.89 444.42 353.17 438.21 352.42 431.99 351.8 425.67 351.32 419.26 350.83 412.85 350.51 406.42 350.35 399.99 350.21 393.55 350.24 387.1 350.46 380.66 350.73 374.21 351.18 367.76 351.84 361.32 352.55 354.88 353.47 348.44 354.59 342.01 355.79 335.58 357.2 329.16 358.81 322.76 360.5 316.36 362.39 309.97 364.48 303.61 366.64 297.25 368.99 290.9 371.52 284.59 374.1 278.28 376.85 272 379.76 265.75 385.63 253.29 392.01 240.97 398.78 228.86 405.4 216.83 412.27 205.05 419.31 193.57 425.99 182.24 432.78 171.28 439.63 160.75 446.09 150.45 452.67 140.64 459.39 131.42 465.82 122.48 472.52 114.18 479.51 106.57 486.4 99.29 493.71 92.74 501.47 86.95 509.29 81.47 517.63 76.73 526.46 72.76 535.46 69 544.97 65.94 554.94 63.55 562.57 61.87 578.4 59.23 586.57 58.23 594.88 57.29 611.87 55.86 620.53 55.32 626.34 54.91 632.19 54.58 638.07 54.31 643.96 53.94 649.88 53.63 655.8 53.38 661.74 53.01 667.68 52.7 673.63 52.44 679.57 52.06 685.51 51.73 691.43 51.45" stroke-dasharray="3 1" transform="rotate(16.964285714285715, 711, 400)" opacity="0.09"></path><path d="M687.81 67.15C696.22 66.58 712.74 65.59 720.86 65.2 731.66 64.51 742.24 64.19 752.65 64.29 763.13 64.28 773.52 64.81 783.86 65.92 794.4 67.11 805.05 68.99 815.87 71.57 827.06 74.39 838.58 77.99 850.51 82.34 862.93 87.03 875.85 92.49 889.28 98.7 903.16 105.25 917.46 112.52 932.04 120.44 946.73 128.66 961.35 137.48 975.58 146.83 989.24 156.41 1001.92 166.44 1013.2 176.86 1023.07 187.43 1030.97 198.32 1036.56 209.48 1040.24 220.7 1041.46 232.15 1040.25 243.77 1037.53 255.41 1032.97 267.2 1027.06 279.1 1021.13 291 1015.12 303.01 1009.74 315.1 1006.32 327.18 1004.77 339.35 1005.56 351.58 1009.43 363.81 1015.89 376.12 1024.69 388.47 1029.98 394.64 1035.65 400.83 1041.6 407.02 1047.83 413.22 1054.11 419.42 1060.32 425.63 1066.44 431.84 1072.16 437.97 1077.37 444.03 1082.15 450.09 1086.22 456.06 1089.5 461.95 1093.97 473.72 1094.7 485.13 1091.69 496.13 1085.66 507.06 1076.46 517.55 1064.74 527.51 1051.5 537.37 1037.12 546.66 1022.37 555.32 1008.14 563.83 994.74 571.67 982.61 578.8 972.28 585.75 963.63 591.98 956.63 597.48 949.68 605.2 942.87 617.41 940.98 622.3 939.26 627.26 931.42 637.51 924.48 643.58 918.88 648.61 912.12 654.17 904.27 660.34 895.88 667.57 886.56 675.48 876.45 684.05 865.98 693.57 854.91 703.59 843.36 713.95 831.64 724.82 819.59 735.63 807.33 746.08 795.01 756.31 782.57 765.64 770.07 773.72 763.82 777.4 757.55 780.66 751.29 783.47 745.03 785.95 738.77 787.93 732.51 789.38 726.25 790.43 720.06 790.92 713.95 790.84 707.83 790.36 701.79 789.33 695.81 787.77 683.84 783.54 672.11 777.38 660.62 769.57 649.05 760.79 637.66 750.82 626.43 739.98 615.08 728.89 603.84 717.42 592.7 705.85 581.42 694.67 570.2 683.73 559.08 673.19 547.83 663.43 536.68 654.21 525.68 645.57 514.64 637.81 503.82 630.57 493.29 623.79 482.88 617.78 472.88 612.05 463.38 606.5 454.17 601.49 445.56 596.44 437.66 591.26 430.14 586.37 423.36 581.16 417.37 575.56 411.73 570.05 406.81 564.02 402.61 557.45 398.59 550.85 395.14 543.65 392.22 535.84 389.24 527.96 386.63 519.46 384.36 510.36 381.82 501.2 379.53 491.46 377.49 481.18 375.12 470.85 373.02 460.02 371.22 448.72 370.22 443.06 369.33 437.29 368.53 431.41 367.7 425.52 366.99 419.54 366.41 413.45 365.82 407.36 365.38 401.25 365.11 395.12 364.86 388.99 364.79 382.85 364.9 376.69 365.27 364.39 366.45 352.05 368.44 339.72 370.75 327.42 373.92 315.14 377.89 302.93 382.16 290.75 387.18 278.66 392.86 266.7 398.67 254.8 405 243.07 411.73 231.55 418.35 220.13 425.23 208.98 432.29 198.15 439.02 187.49 445.85 177.2 452.73 167.36 459.23 157.75 465.8 148.65 472.45 140.12 478.79 131.87 485.3 124.24 492.04 117.28 498.59 110.62 505.48 104.66 512.73 99.41 519.95 94.45 527.61 90.18 535.71 86.61 543.88 83.23 552.53 80.49 561.61 78.36 570.81 76.27 580.42 74.69 590.4 73.6 600.48 72.36 610.89 71.49 621.55 70.95 632.27 70.1 643.2 69.48 654.27 69.08 662.59 68.57 679.37 67.6 687.8 67.15" stroke-dasharray="4 18" transform="rotate(20.357142857142858, 711, 400)" opacity="0.23"></path><path d="M687.11 82.85C697.84 81.95 708.49 81.27 719.04 80.85 729.6 80.12 740.11 79.75 750.58 79.76 761.14 79.65 771.74 80.04 782.42 80.96 793.3 81.94 804.38 83.56 815.71 85.83 827.34 88.3 839.33 91.5 851.68 95.42 864.39 99.63 877.48 104.58 890.9 110.24 904.56 116.21 918.39 122.88 932.22 130.19 945.9 137.79 959.21 145.99 971.85 154.71 983.73 163.67 994.43 173.1 1003.61 182.93 1011.39 192.91 1017.24 203.25 1020.94 213.87 1023.01 224.58 1022.94 235.54 1020.84 246.68 1017.65 257.86 1013.07 269.21 1007.55 280.67 1002.33 292.16 997.3 303.75 993.06 315.41 990.76 327.07 990.24 338.81 991.86 350.58 996.24 362.36 1002.88 374.18 1011.52 386.01 1022.11 397.84 1033.62 409.67 1045.23 421.47 1056.54 433.27 1065.99 444.73 1072.94 455.82 1077.52 466.9 1078.76 477.58 1076.62 487.82 1071.72 498.01 1063.84 507.72 1053.5 516.92 1041.57 526.02 1028.32 534.56 1014.41 542.5 1000.66 550.33 987.33 557.52 974.88 564.07 963.82 570.51 954.13 576.3 945.86 581.47 936.68 588.85 925.69 601.14 922.34 606.43 919.84 612 912.52 623.92 906.75 630.92 902.24 636.52 896.71 642.61 890.2 649.24 883.27 656.79 875.42 664.92 866.75 673.58 857.77 683.04 848.09 692.86 837.84 702.89 827.4 713.3 816.51 723.55 805.28 733.39 793.97 742.97 782.39 751.65 770.63 759.15 758.84 765.7 746.91 770.62 734.87 773.68 722.83 775.31 710.96 774.87 699.27 772.43 687.57 768.64 676.02 763.06 664.63 755.92 653.19 747.87 641.86 738.65 630.64 728.56 619.35 718.15 608.13 707.29 597 696.21 585.78 685.39 574.64 674.69 563.61 664.24 552.53 654.43 541.59 645.03 530.84 636.1 520.14 627.94 509.71 620.23 499.64 612.93 489.75 606.34 480.32 600.05 471.43 593.97 462.86 588.41 454.92 582.9 447.67 577.34 440.81 572.1 434.68 566.66 429.29 560.93 424.22 555.34 419.83 549.36 416.1 542.93 412.5 536.53 409.43 529.62 406.82 522.18 404.12 514.71 401.74 506.69 399.64 498.13 397.25 489.52 395.06 480.37 393.08 470.72 390.73 461.02 388.59 450.83 386.72 440.18 384.59 429.51 382.81 418.4 381.49 406.88 380.13 395.36 379.42 383.72 379.38 372.02 379.55 360.34 380.52 348.6 382.31 336.87 384.44 325.17 387.42 313.48 391.21 301.86 395.34 290.29 400.21 278.81 405.75 267.47 411.46 256.21 417.7 245.12 424.36 234.26 430.96 223.52 437.84 213.06 444.9 202.93 451.7 192.98 458.59 183.41 465.54 174.29 472.12 165.41 478.75 157.02 485.43 149.19 491.76 141.63 498.22 134.67 504.82 128.35 511.19 122.3 517.81 116.91 524.71 112.19 531.5 107.71 538.65 103.88 546.17 100.7 553.7 97.67 561.64 95.21 569.97 93.33 578.36 91.44 587.16 90.03 596.32 89.05 605.54 87.91 615.1 87.11 624.96 86.6 634.86 85.79 645.02 85.19 655.39 84.79 665.78 83.98 676.36 83.33 687.1 82.85" stroke-dasharray="14 20" transform="rotate(23.75, 711, 400)" opacity="0.83"></path><path d="M689.42 98.55C699.73 97.65 710.06 96.97 720.41 96.52 730.79 95.77 741.23 95.35 751.74 95.29 762.34 95.09 773.08 95.36 783.98 96.12 795.06 96.9 806.37 98.28 817.95 100.27 829.75 102.42 841.86 105.24 854.25 108.73 866.85 112.48 879.68 116.93 892.65 122.05 905.64 127.46 918.58 133.53 931.26 140.22 943.59 147.18 955.32 154.73 966.17 162.8 976.16 171.11 984.86 179.89 992.01 189.07 997.85 198.43 1001.89 208.15 1004 218.17 1004.77 228.3 1003.75 238.69 1001.08 249.27 997.71 259.93 993.34 270.75 988.4 281.7 984 292.69 979.98 303.78 976.86 314.94 975.61 326.12 976.03 337.35 978.37 348.61 983.17 359.88 989.91 371.16 998.34 382.42 1008.44 393.69 1019.28 404.93 1030.15 416.1 1040.74 427.26 1049.67 438.06 1056.37 448.48 1061.02 458.88 1062.69 468.87 1061.31 478.41 1057.46 487.9 1050.82 496.92 1041.82 505.43 1031.22 513.87 1019.17 521.77 1006.25 529.12 993.18 536.38 980.19 543.07 967.71 549.19 956.25 555.24 945.83 560.75 936.57 565.72 928.78 570.71 922.15 575.24 916.55 579.37 910.39 585.64 901.6 597.67 897.63 603.93 895.11 608.69 892.04 613.7 888.3 619.03 884.41 625.1 879.71 631.62 874.16 638.6 868.34 646.38 861.68 654.63 854.23 663.29 846.51 672.59 838.09 682.15 829.05 691.79 819.82 701.7 810.07 711.39 799.86 720.61 789.57 729.54 778.91 737.6 767.95 744.52 756.95 750.58 745.7 755.13 734.22 757.98 722.74 759.54 711.32 759.21 699.99 757.06 688.65 753.67 677.38 748.64 666.2 742.16 654.99 734.8 643.84 726.33 632.77 716.97 621.66 707.26 610.61 697.04 599.64 686.52 588.65 676.14 577.75 665.76 566.98 655.52 556.24 645.77 545.68 636.31 535.36 627.22 525.16 618.78 515.28 610.71 505.8 603.01 496.56 595.94 487.81 589.15 479.62 582.59 471.77 576.53 464.56 570.56 458.03 564.61 451.86 559 446.37 553.26 441.59 547.34 437.09 541.59 433.2 535.55 429.92 529.17 426.71 522.85 423.97 516.11 421.65 508.94 419.18 501.76 416.98 494.11 415.02 485.99 412.74 477.83 410.61 469.19 408.65 460.09 406.3 450.95 404.13 441.36 402.18 431.32 399.95 421.27 398.06 410.79 396.58 399.92 395.06 389.05 394.16 378.06 393.92 367 393.89 355.95 394.65 344.86 396.22 333.77 398.14 322.71 400.91 311.67 404.48 300.7 408.41 289.8 413.09 278.98 418.44 268.32 424 257.75 430.11 247.36 436.66 237.21 443.21 227.2 450.05 217.46 457.11 208.07 463.95 198.86 470.91 190.04 477.94 181.66 484.63 173.51 491.36 165.84 498.12 158.72 504.53 151.84 511.03 145.53 517.62 139.83 523.93 134.37 530.42 129.52 537.13 125.31 543.66 121.28 550.48 117.86 557.6 115.03 564.65 112.31 572.06 110.12 579.83 108.44 587.59 106.74 595.73 105.46 604.22 104.58 612.73 103.52 621.59 102.76 630.77 102.29 639.97 101.5 649.47 100.9 659.26 100.5 669.04 99.7 679.1 99.04 689.41 98.55" stroke-dasharray="19 20" transform="rotate(27.142857142857142, 711, 400)" opacity="0.32"></path><path d="M694.45 114.25C704.39 113.36 714.45 112.67 724.61 112.2 734.79 111.45 745.12 111 755.59 110.87 766.13 110.61 776.87 110.77 787.81 111.38 798.87 112 810.16 113.16 821.68 114.88 833.34 116.73 845.22 119.2 857.25 122.29 869.35 125.61 881.52 129.57 893.63 134.16 905.61 139.01 917.31 144.5 928.56 150.57 939.32 156.9 949.3 163.79 958.29 171.19 966.39 178.82 973.18 186.92 978.47 195.43 982.61 204.12 985.12 213.17 985.96 222.53 985.76 232.02 984.11 241.78 981.19 251.74 977.9 261.8 973.94 272.03 969.7 282.39 966.19 292.81 963.2 303.34 961.14 313.93 960.86 324.55 962.12 335.23 965.08 345.91 970.19 356.62 976.96 367.33 985.15 377.99 994.75 388.67 1004.92 399.29 1015.06 409.81 1024.96 420.34 1033.37 430.5 1039.8 440.26 1044.46 450.01 1046.48 459.35 1045.78 468.25 1042.87 477.11 1037.4 485.52 1029.68 493.44 1020.4 501.31 1009.6 508.68 997.77 515.55 985.56 522.36 973.14 528.68 960.91 534.49 949.36 540.29 938.52 545.63 928.58 550.54 919.83 555.51 912.08 560.12 905.27 564.43 899.62 568.94 894.71 573.26 890.33 577.46 886.76 582.04 883.4 586.64 880.04 591.34 877.04 596.59 873.75 602.08 870.04 607.87 866.35 614.33 862.05 621.17 857.1 628.39 852 636.29 846.18 644.56 839.65 653.12 832.94 662.2 825.56 671.43 817.54 680.64 809.38 690.03 800.66 699.13 791.42 707.73 782.11 716.03 772.35 723.48 762.19 729.85 752.01 735.44 741.48 739.64 730.64 742.28 719.79 743.77 708.91 743.54 698.04 741.65 687.17 738.65 676.29 734.14 665.45 728.26 654.61 721.59 643.79 713.84 633.01 705.21 622.25 696.21 611.53 686.65 600.91 676.73 590.31 666.86 579.83 656.88 569.52 646.94 559.29 637.37 549.28 627.98 539.55 618.85 530 610.25 520.81 601.95 512.05 593.96 503.56 586.52 495.58 579.33 488.17 572.37 481.09 565.87 474.63 559.48 468.84 553.16 463.36 547.17 458.52 541.13 454.34 534.97 450.36 529.02 446.95 522.86 444.07 516.44 441.22 510.12 438.77 503.47 436.67 496.47 434.39 489.49 432.33 482.12 430.46 474.34 428.25 466.55 426.16 458.34 424.19 449.71 421.83 441.07 419.62 432.01 417.59 422.54 415.29 413.07 413.28 403.2 411.66 392.96 410 382.73 408.93 372.39 408.51 361.98 408.29 351.59 408.84 341.16 410.18 330.74 411.87 320.36 414.4 310.01 417.72 299.74 421.41 289.53 425.85 279.43 430.97 269.49 436.33 259.64 442.26 249.99 448.65 240.6 455.08 231.33 461.85 222.35 468.86 213.72 475.72 205.26 482.72 197.19 489.81 189.56 496.61 182.13 503.45 175.18 510.33 168.74 516.87 162.53 523.47 156.85 530.13 151.74 536.49 146.84 542.98 142.5 549.62 138.75 556.05 135.15 562.7 132.09 569.59 129.59 576.36 127.14 583.42 125.18 590.8 123.69 598.11 122.14 605.76 120.97 613.75 120.17 621.72 119.17 630.03 118.45 638.68 117.99 647.32 117.21 656.29 116.62 665.6 116.21 674.88 115.41 684.5 114.75 694.45 114.25" stroke-dasharray="20 18" transform="rotate(30.53571428571429, 711, 400)" opacity="0.70"></path><path d="M701.57 129.95C711.19 129.07 720.96 128.39 730.89 127.91 740.84 127.15 750.97 126.68 761.26 126.51 771.62 126.19 782.17 126.27 792.9 126.76 803.72 127.23 814.71 128.19 825.86 129.67 837.05 131.25 848.36 133.4 859.68 136.11 870.95 139.01 882.13 142.52 893.07 146.61 903.76 150.92 914.01 155.83 923.64 161.3 932.73 166.99 940.94 173.23 948.1 179.96 954.43 186.91 959.49 194.31 963.16 202.12 965.88 210.11 967.18 218.46 967.08 227.13 966.25 235.93 964.28 245.01 961.37 254.3 958.37 263.7 954.99 273.28 951.55 283 948.95 292.79 946.96 302.69 945.91 312.66 946.51 322.67 948.49 332.73 951.96 342.81 957.31 352.9 964.04 363 971.93 373.04 981.02 383.1 990.54 393.09 999.98 402.98 1009.2 412.86 1017.09 422.39 1023.23 431.54 1027.86 440.68 1030.16 449.42 1030.04 457.74 1027.98 466.03 1023.57 473.9 1017.07 481.32 1009.07 488.71 999.54 495.66 988.87 502.16 977.66 508.63 966 514.68 954.27 520.31 942.91 525.96 931.97 531.24 921.66 536.17 912.26 541.2 903.66 545.97 895.87 550.51 889.1 555.28 883.03 559.94 877.54 564.54 872.85 569.51 868.5 574.55 864.32 579.71 860.61 585.37 856.81 591.26 852.8 597.41 848.96 604.15 844.71 611.2 839.98 618.56 835.23 626.48 829.91 634.67 824 643.06 817.99 651.84 811.38 660.68 804.18 669.42 796.88 678.26 789.02 686.77 780.64 694.75 772.2 702.43 763.27 709.29 753.91 715.14 744.53 720.28 734.73 724.14 724.58 726.58 714.42 728 704.16 727.86 693.84 726.2 683.53 723.57 673.18 719.54 662.81 714.25 652.47 708.22 642.13 701.17 631.83 693.27 621.57 684.98 611.36 676.11 601.26 666.82 591.23 657.51 581.34 648 571.65 638.45 562.09 629.15 552.78 619.94 543.8 610.9 535.02 602.27 526.62 593.87 518.68 585.71 511.01 578.01 503.85 570.53 497.27 563.26 490.98 556.39 485.29 549.66 480.22 543.01 475.41 536.68 471.19 530.35 467.56 523.96 464.08 517.79 461.09 511.47 458.56 504.97 456.01 498.6 453.79 491.97 451.87 485.07 449.72 478.22 447.76 471.05 445.94 463.54 443.77 456.05 441.68 448.19 439.69 439.99 437.31 431.77 435.05 423.19 432.95 414.25 430.58 405.31 428.49 396.02 426.75 386.41 424.97 376.79 423.75 367.09 423.15 357.34 422.76 347.61 423.1 337.86 424.2 328.13 425.66 318.44 427.92 308.8 430.96 299.25 434.38 289.76 438.54 280.4 443.37 271.21 448.48 262.11 454.16 253.22 460.33 244.59 466.6 236.09 473.23 227.88 480.14 220.01 486.96 212.31 493.95 204.98 501.06 198.08 507.95 191.36 514.89 185.09 521.88 179.32 528.57 173.74 535.3 168.65 542.07 164.1 548.56 159.72 555.14 155.85 561.82 152.52 568.27 149.31 574.88 146.59 581.68 144.36 588.32 142.16 595.2 140.4 602.34 139.06 609.38 137.64 616.71 136.56 624.36 135.81 631.95 134.87 639.87 134.17 648.12 133.7 656.34 132.94 664.9 132.34 673.81 131.91 682.7 131.12 691.96 130.46 701.57 129.95" stroke-dasharray="13 8" transform="rotate(33.92857142857143, 711, 400)" opacity="0.80"></path><path d="M709.88 145.65C719.18 144.79 728.64 144.11 738.26 143.63 747.9 142.89 757.72 142.4 767.69 142.2 777.7 141.85 787.86 141.85 798.16 142.24 808.48 142.58 818.91 143.38 829.39 144.64 839.85 145.98 850.29 147.83 860.62 150.2 870.8 152.72 880.75 155.79 890.32 159.41 899.56 163.22 908.25 167.57 916.24 172.45 923.66 177.54 930.18 183.13 935.66 189.2 940.41 195.46 943.99 202.17 946.34 209.27 947.94 216.54 948.36 224.18 947.66 232.13 946.49 240.21 944.47 248.57 941.81 257.16 939.27 265.85 936.57 274.74 934 283.78 932.32 292.89 931.29 302.12 931.16 311.43 932.54 320.78 935.13 330.19 939.01 339.62 944.49 349.07 951.13 358.53 958.7 367.93 967.26 377.35 976.14 386.71 984.89 395.97 993.45 405.23 1000.83 414.15 1006.66 422.72 1011.22 431.27 1013.73 439.46 1014.11 447.27 1012.8 455.06 1009.36 462.46 1003.99 469.47 997.22 476.47 988.95 483.08 979.48 489.3 969.36 495.53 958.62 501.4 947.6 506.93 936.68 512.51 925.93 517.79 915.56 522.81 905.83 527.96 896.69 532.92 888.19 537.73 880.53 542.77 873.49 547.75 867.01 552.72 861.28 558.04 855.94 563.45 850.88 568.99 846.33 574.98 841.85 581.17 837.32 587.58 833.06 594.49 828.57 601.66 823.78 609.05 819.06 616.89 813.93 624.91 808.34 633.05 802.73 641.48 796.62 649.87 790.01 658.12 783.33 666.39 776.16 674.3 768.49 681.68 760.77 688.75 752.59 695.04 743.96 700.39 735.32 705.09 726.25 708.63 716.8 710.87 707.35 712.23 697.76 712.16 688.09 710.73 678.43 708.43 668.7 704.85 658.95 700.12 649.24 694.71 639.52 688.33 629.84 681.14 620.23 673.56 610.68 665.38 601.27 656.75 591.95 648.03 582.8 639.07 573.88 629.98 565.12 621.04 556.63 612.11 548.49 603.27 540.56 594.74 533.04 586.35 525.97 578.15 519.16 570.32 512.85 562.67 507.08 555.19 501.58 548.06 496.63 541.06 492.24 534.16 488.07 527.55 484.41 520.96 481.27 514.37 478.22 507.98 475.6 501.51 473.36 494.93 471.04 488.47 469 481.83 467.2 474.99 465.15 468.22 463.24 461.2 461.43 453.91 459.27 446.65 457.17 439.1 455.13 431.26 452.73 423.41 450.42 415.27 448.26 406.83 445.84 398.38 443.67 389.63 441.83 380.61 439.96 371.59 438.61 362.52 437.86 353.43 437.29 344.35 437.43 335.28 438.3 326.25 439.51 317.25 441.49 308.33 444.23 299.51 447.34 290.75 451.18 282.14 455.69 273.71 460.49 265.36 465.88 257.24 471.77 249.37 477.8 241.62 484.22 234.17 490.96 227.06 497.67 220.08 504.59 213.48 511.67 207.29 518.58 201.24 525.58 195.63 532.64 190.49 539.46 185.49 546.32 180.96 553.22 176.92 559.86 173.01 566.56 169.58 573.33 166.63 579.88 163.75 586.55 161.32 593.36 159.34 599.99 157.35 606.82 155.76 613.85 154.54 620.76 153.22 627.93 152.22 635.36 151.5 642.72 150.59 650.37 149.9 658.34 149.43 666.25 148.67 674.5 148.06 683.09 147.61 691.66 146.83 700.59 146.17 709.88 145.65" stroke-dasharray="0 13" transform="rotate(37.32142857142857, 711, 400)" opacity="0.34"></path><path d="M718.33 161.35C727.29 160.51 736.39 159.85 745.62 159.37 754.86 158.64 764.24 158.16 773.72 157.94 783.22 157.56 792.81 157.51 802.45 157.81 812.08 158.06 821.72 158.71 831.31 159.78 840.81 160.9 850.18 162.49 859.32 164.55 868.26 166.72 876.85 169.4 884.97 172.57 892.73 175.91 899.87 179.75 906.26 184.07 912.14 188.57 917.14 193.55 921.16 198.97 924.58 204.56 926.98 210.58 928.33 216.98 929.14 223.54 929.01 230.45 928 237.68 926.76 245.03 924.93 252.66 922.69 260.52 920.75 268.49 918.81 276.65 917.11 284.98 916.32 293.38 916.18 301.91 916.88 310.52 918.92 319.19 922.02 327.93 926.2 336.69 931.75 345.47 938.22 354.27 945.44 363.04 953.47 371.81 961.72 380.55 969.81 389.19 977.73 397.84 984.6 406.18 990.11 414.2 994.55 422.22 997.21 429.91 998 437.26 997.33 444.6 994.77 451.61 990.44 458.28 984.83 464.95 977.77 471.29 969.52 477.32 960.55 483.37 950.84 489.13 940.68 494.62 930.43 500.18 920.13 505.52 909.98 510.66 900.23 515.95 890.86 521.1 881.96 526.16 873.7 531.45 865.95 536.73 858.69 542.02 852.07 547.63 845.85 553.33 839.96 559.16 834.56 565.37 829.34 571.76 824.18 578.33 819.34 585.31 814.43 592.47 809.35 599.79 804.43 607.47 799.24 615.25 793.73 623.05 788.26 631.07 782.41 639 776.15 646.71 769.89 654.41 763.2 661.72 756.08 668.5 748.94 674.98 741.37 680.72 733.41 685.59 725.42 689.88 717.04 693.11 708.3 695.17 699.55 696.45 690.67 696.46 681.69 695.23 672.74 693.23 663.72 690.08 654.68 685.87 645.69 681.04 636.7 675.31 627.77 668.81 618.92 661.92 610.17 654.43 601.56 646.48 593.07 638.4 584.77 630.02 576.71 621.45 568.83 612.96 561.23 604.41 554 595.86 546.97 587.54 540.34 579.3 534.15 571.17 528.2 563.34 522.72 555.63 517.74 548.06 512.98 540.79 508.71 533.62 504.95 526.55 501.34 519.74 498.18 512.97 495.46 506.22 492.77 499.66 490.43 493.07 488.41 486.4 486.27 479.87 484.36 473.22 482.62 466.42 480.62 459.71 478.72 452.8 476.9 445.7 474.73 438.64 472.59 431.35 470.52 423.83 468.08 416.32 465.73 408.57 463.52 400.58 461.06 392.6 458.83 384.37 456.92 375.92 454.96 367.46 453.52 358.99 452.62 350.54 451.9 342.1 451.85 333.7 452.48 325.36 453.44 317.05 455.14 308.84 457.55 300.75 460.34 292.72 463.82 284.84 467.97 277.16 472.42 269.55 477.45 262.17 483 255.06 488.73 248.04 494.87 241.32 501.36 234.93 507.88 228.66 514.65 222.74 521.61 217.21 528.47 211.81 535.46 206.81 542.52 202.24 549.41 197.79 556.36 193.77 563.34 190.19 570.12 186.7 576.95 183.65 583.83 181.03 590.51 178.45 597.28 176.28 604.14 174.5 610.85 172.69 617.69 171.24 624.7 170.11 631.59 168.88 638.68 167.92 645.99 167.23 653.21 166.34 660.7 165.65 668.45 165.16 676.16 164.4 684.16 163.78 692.47 163.31 700.76 162.53 709.38 161.87 718.33 161.35" stroke-dasharray="14 2" transform="rotate(40.714285714285715, 711, 400)" opacity="0.23"></path><path d="M725.86 177.05C734.44 176.24 743.11 175.59 751.85 175.12 760.6 174.42 769.42 173.95 778.27 173.72 787.12 173.34 795.98 173.25 804.8 173.48 813.58 173.65 822.27 174.18 830.81 175.09 839.23 176.02 847.42 177.38 855.27 179.16 862.92 181.02 870.13 183.34 876.81 186.11 883.15 189.01 888.85 192.37 893.82 196.17 900.21 202.32 908.07 216.95 909.5 225.36 909.83 231.21 909.43 237.42 908.39 243.92 907.31 250.54 905.85 257.44 904.18 264.58 902.91 271.8 901.76 279.24 900.92 286.84 900.96 294.51 901.62 302.33 903.04 310.25 905.64 318.21 909.14 326.25 913.52 334.34 919.05 342.45 925.32 350.59 932.15 358.72 939.65 366.86 947.28 374.97 954.72 383.02 962.02 391.07 968.39 398.86 973.57 406.38 977.86 413.89 980.61 421.13 981.73 428.07 981.61 435.02 979.81 441.68 976.43 448.07 971.9 454.47 966 460.6 958.94 466.48 951.14 472.4 942.53 478.09 933.36 483.57 923.95 489.15 914.31 494.56 904.63 499.82 895.15 505.24 885.85 510.57 876.85 515.85 868.3 521.35 860.11 526.85 852.33 532.39 845.06 538.21 838.15 544.12 831.56 550.14 825.41 556.48 819.49 562.96 813.71 569.57 808.25 576.51 802.83 583.58 797.36 590.74 792.09 598.16 786.67 605.62 781.06 613.05 775.54 620.61 769.76 628.03 763.69 635.2 757.64 642.31 751.26 649.02 744.55 655.22 737.83 661.13 730.77 666.34 723.36 670.75 715.95 674.65 708.2 677.59 700.13 679.47 692.06 680.68 683.88 680.74 675.64 679.69 667.42 677.98 659.15 675.22 650.89 671.5 642.68 667.23 634.5 662.11 626.41 656.27 618.39 650.06 610.49 643.27 602.77 636 595.16 628.58 587.76 620.81 580.63 612.82 573.65 604.84 566.97 596.74 560.65 588.59 554.51 580.58 548.76 572.58 543.43 564.65 538.28 556.93 533.57 549.29 529.32 541.75 525.22 534.45 521.57 527.23 518.35 520.1 515.21 513.18 512.46 506.31 510.08 499.47 507.67 492.81 505.54 486.13 503.68 479.43 501.66 472.85 499.8 466.2 498.09 459.46 496.1 452.8 494.18 446.01 492.33 439.08 490.12 432.2 487.95 425.15 485.82 417.93 483.36 410.73 480.98 403.34 478.72 395.78 476.24 388.22 473.97 380.48 472 372.58 469.99 364.67 468.46 356.78 467.44 348.95 466.59 341.12 466.35 333.36 466.77 325.7 467.48 318.06 468.88 310.53 470.97 303.16 473.4 295.82 476.52 288.66 480.26 281.71 484.32 274.81 488.95 268.15 494.1 261.75 499.46 255.44 505.25 249.41 511.41 243.7 517.65 238.08 524.18 232.8 530.93 227.89 537.64 223.08 544.52 218.63 551.51 214.58 558.38 210.62 565.33 207.05 572.34 203.88 579.19 200.78 586.1 198.05 593.05 195.72 599.84 193.4 606.69 191.44 613.62 189.83 620.41 188.17 627.3 186.82 634.32 185.77 641.22 184.59 648.28 183.67 655.51 182.98 662.67 182.1 670.03 181.4 677.61 180.89 685.14 180.12 692.93 179.49 700.96 179.01 708.98 178.23 717.28 177.57 725.86 177.05" stroke-dasharray="18 7" transform="rotate(44.10714285714286, 711, 400)" opacity="0.63"></path><path d="M731.51 192.75C739.66 191.96 747.83 191.34 756 190.89 764.17 190.22 772.33 189.77 780.45 189.54 788.54 189.16 796.57 189.05 804.46 189.23 812.3 189.34 819.96 189.77 827.38 190.55 834.68 191.33 841.66 192.48 848.26 194.02 857.6 196.61 873.23 203.98 879.23 208.77 884.02 214.13 889.5 227.01 890.27 234.45 890.4 239.64 889.99 245.15 889.14 250.96 888.39 256.87 887.44 263.05 886.4 269.47 885.84 275.97 885.48 282.68 885.45 289.57 886.25 296.52 887.61 303.62 889.63 310.84 892.67 318.1 896.45 325.46 900.95 332.87 906.39 340.32 912.4 347.8 918.83 355.3 925.8 362.81 932.82 370.33 939.64 377.81 946.33 385.29 952.2 392.56 957.05 399.6 961.16 406.64 963.94 413.46 965.31 420.04 965.65 426.63 964.51 432.99 961.97 439.13 958.42 445.29 953.6 451.25 947.69 457.01 941.05 462.82 933.57 468.46 925.46 473.95 917.02 479.53 908.21 485 899.21 490.37 890.25 495.89 881.3 501.36 872.48 506.8 863.94 512.44 855.64 518.1 847.61 523.8 839.96 529.74 832.6 535.76 825.52 541.85 818.81 548.22 812.32 554.68 806.02 561.23 800.01 568.03 794.09 574.91 788.22 581.82 782.54 588.92 776.83 596 771.04 602.99 765.35 610.05 759.52 616.94 753.5 623.55 747.53 630.08 741.34 636.21 734.92 641.83 728.5 647.19 721.83 651.9 714.9 655.87 707.96 659.39 700.77 662.05 693.33 663.77 685.89 664.9 678.4 665.01 670.88 664.13 663.38 662.67 655.88 660.28 648.42 657.01 641.01 653.26 633.66 648.73 626.43 643.52 619.26 637.97 612.25 631.86 605.43 625.28 598.71 618.51 592.21 611.4 586 604.02 579.9 596.61 574.12 589.02 568.67 581.34 563.37 573.74 558.43 566.09 553.88 558.45 549.47 550.97 545.44 543.51 541.82 536.12 538.29 528.91 535.14 521.75 532.37 514.65 529.61 507.74 527.18 500.86 525.05 494.03 522.84 487.34 520.86 480.66 519.08 473.98 517.12 467.4 515.28 460.79 513.55 454.14 511.54 447.56 509.58 440.89 507.67 434.15 505.42 427.44 503.21 420.63 501.03 413.7 498.55 406.79 496.15 399.76 493.86 392.6 491.38 385.45 489.09 378.17 487.09 370.78 485.05 363.39 483.45 356.06 482.33 348.82 481.35 341.58 480.96 334.44 481.16 327.42 481.63 320.42 482.74 313.55 484.5 306.85 486.58 300.18 489.3 293.7 492.62 287.43 496.25 281.21 500.44 275.22 505.14 269.5 510.07 263.83 515.45 258.44 521.2 253.36 527.08 248.35 533.27 243.65 539.7 239.3 546.17 235.01 552.82 231.07 559.62 227.49 566.37 223.96 573.23 220.78 580.16 217.97 586.99 215.19 593.88 212.75 600.83 210.65 607.66 208.55 614.54 206.76 621.49 205.28 628.32 203.74 635.23 202.47 642.23 201.47 649.14 200.34 656.16 199.44 663.31 198.74 670.39 197.86 677.63 197.16 685.03 196.62 692.39 195.84 699.95 195.2 707.69 194.69 715.42 193.92 723.36 193.27 731.51 192.75" stroke-dasharray="10 6" transform="rotate(47.5, 711, 400)" opacity="0.44"></path><path d="M734.57 208.45C742.23 207.7 749.83 207.1 757.37 206.67 764.89 206.04 772.33 205.62 779.65 205.4 786.94 205.03 794.07 204.92 801.01 205.06 807.88 205.13 814.51 205.49 820.84 206.16 829.96 207.3 845.96 211.34 852.6 214.29 858.34 217.7 866.53 226.52 868.94 231.9 870.51 237.77 871.09 251.31 870.49 258.89 870.01 266.87 869.8 284.15 870.7 293.35 872.15 299.59 874.11 305.99 876.61 312.53 879.98 319.1 883.94 325.78 888.47 332.55 893.75 339.33 899.47 346.19 905.48 353.08 911.91 359.98 918.34 366.91 924.55 373.84 930.67 380.78 936.05 387.55 940.54 394.15 944.44 400.75 947.21 407.17 948.76 413.41 949.47 419.67 948.89 425.75 947.08 431.67 944.4 437.61 940.58 443.4 935.74 449.05 930.22 454.75 923.87 460.34 916.86 465.82 909.46 471.38 901.6 476.88 893.45 482.31 885.2 487.88 876.84 493.42 868.46 498.95 860.22 504.66 852.07 510.38 844.09 516.14 836.36 522.11 828.82 528.13 821.5 534.2 814.46 540.48 807.62 546.83 800.95 553.21 794.53 559.79 788.23 566.39 782.03 572.97 776.01 579.68 770.02 586.32 764.03 592.84 758.16 599.38 752.22 605.72 746.21 611.76 740.25 617.71 734.17 623.26 727.95 628.34 721.75 633.16 715.38 637.39 708.86 640.96 702.33 644.12 695.63 646.51 688.77 648.07 681.9 649.13 675.05 649.27 668.22 648.54 661.41 647.32 654.65 645.26 647.98 642.41 641.33 639.14 634.79 635.17 628.4 630.57 622.07 625.65 615.91 620.19 609.95 614.29 604.08 608.19 598.44 601.73 593.08 594.99 587.81 588.19 582.84 581.18 578.18 574.02 573.63 566.9 569.41 559.69 565.53 552.45 561.74 545.3 558.29 538.14 555.19 531 552.12 523.99 549.37 517 546.93 510.06 544.46 503.26 542.25 496.48 540.28 489.74 538.19 483.13 536.29 476.52 534.54 469.93 532.58 463.43 530.73 456.92 528.95 450.4 526.9 443.94 524.88 437.44 522.9 430.89 520.62 424.39 518.36 417.82 516.14 411.19 513.65 404.57 511.24 397.88 508.95 391.12 506.47 384.37 504.19 377.53 502.17 370.64 500.12 363.74 498.48 356.94 497.28 350.26 496.2 343.58 495.66 337.02 495.66 330.61 495.91 324.21 496.75 317.97 498.18 311.9 499.9 305.86 502.22 300.01 505.11 294.38 508.29 288.78 512.01 283.41 516.22 278.3 520.67 273.23 525.56 268.43 530.84 263.91 536.27 259.44 542.03 255.27 548.07 251.41 554.17 247.59 560.5 244.09 567 240.91 573.5 237.76 580.13 234.92 586.87 232.41 593.55 229.9 600.32 227.7 607.15 225.8 613.91 223.87 620.73 222.22 627.59 220.85 634.38 219.4 641.24 218.19 648.15 217.22 655 216.11 661.93 215.21 668.94 214.51 675.91 213.62 682.98 212.9 690.16 212.33 697.31 211.55 704.59 210.89 711.99 210.37 719.38 209.61 726.91 208.96 734.57 208.45" stroke-dasharray="1 9" transform="rotate(50.89285714285714, 711, 400)" opacity="0.92"></path><path d="M734.65 224.15C741.77 223.43 748.76 222.87 755.61 222.47 762.46 221.88 769.15 221.48 775.65 221.28 782.12 220.94 788.38 220.83 794.39 220.96 803.17 221.15 818.97 222.86 825.83 224.44 836.98 229.09 848.33 239.47 850.24 244.15 851.6 249.25 852.64 261.08 852.68 267.75 853.04 274.78 854.79 290.08 856.66 298.29 858.66 303.85 861.09 309.59 863.96 315.47 867.54 321.38 871.59 327.42 876.06 333.55 881.13 339.71 886.51 345.95 892.08 352.26 897.98 358.57 903.83 364.95 909.47 371.36 915.02 377.77 919.92 384.07 924.06 390.24 927.73 396.41 930.43 402.46 932.11 408.38 933.09 414.32 932.97 420.13 931.79 425.82 929.88 431.55 926.95 437.17 923.09 442.69 918.62 448.26 913.36 453.76 907.44 459.19 901.11 464.7 894.28 470.17 887.08 475.6 879.7 481.15 872.1 486.69 864.38 492.23 856.67 497.9 848.95 503.6 841.28 509.33 833.74 515.21 826.31 521.12 819.02 527.07 811.92 533.17 804.96 539.3 798.15 545.43 791.53 551.7 785.03 557.95 778.64 564.13 772.4 570.4 766.23 576.57 760.11 582.57 754.1 588.57 748.1 594.35 742.08 599.83 736.13 605.2 730.14 610.19 724.09 614.73 718.07 619.05 711.96 622.83 705.79 626 699.61 628.82 693.35 630.97 687.01 632.37 680.66 633.35 674.39 633.53 668.2 632.93 662.03 631.92 655.95 630.16 650 627.71 644.07 624.88 638.28 621.43 632.67 617.39 627.1 613.08 621.71 608.26 616.55 603.01 611.44 597.58 606.56 591.78 601.96 585.7 597.41 579.52 593.14 573.12 589.16 566.55 585.23 559.97 581.61 553.27 578.28 546.5 574.99 539.77 571.99 533 569.28 526.22 566.56 519.52 564.1 512.82 561.89 506.14 559.61 499.55 557.54 492.98 555.65 486.44 553.62 479.99 551.73 473.55 549.96 467.13 547.98 460.79 546.07 454.45 544.23 448.12 542.12 441.84 540.04 435.55 538 429.24 535.68 422.97 533.39 416.67 531.15 410.35 528.66 404.04 526.26 397.7 523.97 391.33 521.53 384.97 519.27 378.57 517.26 372.15 515.21 365.73 513.55 359.43 512.29 353.28 510.8 344.13 510.62 326.61 512.02 318.29 514.36 310.19 522.11 295.07 527.42 288.11 531.36 283.58 535.72 279.29 540.46 275.28 545.38 271.29 550.63 267.58 556.17 264.15 561.82 260.74 567.71 257.61 573.79 254.77 579.92 251.95 586.2 249.4 592.61 247.13 599.02 244.86 605.53 242.85 612.11 241.11 618.67 239.32 625.29 237.78 631.96 236.48 638.59 235.1 645.27 233.93 652 232.97 658.69 231.89 665.43 230.98 672.22 230.26 678.98 229.37 685.81 228.62 692.69 228.03 699.55 227.24 706.49 226.57 713.49 226.04 720.48 225.29 727.54 224.65 734.65 224.15" stroke-dasharray="8 14" transform="rotate(54.285714285714285, 711, 400)" opacity="0.69"></path><path d="M731.75 239.85C738.28 239.17 744.63 238.65 750.79 238.27 759.92 237.55 777.02 236.84 784.91 236.91 790.02 236.94 794.82 237.21 799.3 237.73 808 238.64 815.23 240.67 820.82 243.81 826.02 247.01 829.63 251.44 831.75 257.01 833.93 262.76 835.17 269.66 835.9 277.56 837.78 285.65 840.1 294.67 843.31 304.46 845.74 309.4 848.51 314.51 851.63 319.77 855.32 325.05 859.36 330.47 863.7 336.02 868.51 341.57 873.52 347.23 878.65 352.98 884.02 358.73 889.31 364.58 894.38 370.49 899.38 376.4 903.83 382.24 907.61 387.99 912.32 396.6 916.66 413.42 916.13 421.65 914.87 427.13 912.72 432.56 909.74 437.92 902.22 448.79 892.01 459.53 879.88 470.15 866.87 481.13 852.92 492.17 838.65 503.21 824.55 514.72 810.6 526.31 797.06 537.8 784.01 549.64 771.32 561.21 758.99 572.15 752.96 577.6 746.97 582.81 741.03 587.73 735.14 592.54 729.26 596.99 723.4 601.02 717.56 604.85 711.71 608.19 705.86 611 700.01 613.51 694.15 615.41 688.27 616.67 679.52 617.67 662.7 615.73 654.66 612.89 649.37 610.48 644.24 607.5 639.31 604.01 634.4 600.26 629.69 596.05 625.2 591.43 616.31 581.7 608.35 570.69 601.44 558.83 594.6 546.84 588.76 534.33 583.91 521.61 578.89 509.08 574.62 496.45 571.02 483.89 566.81 471.59 562.93 459.3 559.32 447.1 557.16 441.07 555.03 435.04 552.93 429.03 550.59 423.04 548.28 417.04 546.03 411.05 543.57 405.08 541.19 399.1 538.94 393.13 536.55 387.16 534.33 381.19 532.34 375.23 529.49 366.37 525.77 349.41 525.06 341.35 525.07 333.47 527.88 318.64 530.68 311.74 535.44 302.71 542.05 294.55 550.21 287.38 559.08 280.26 569.2 274.11 580.23 269.01 591.58 263.88 603.58 259.71 615.96 256.52 628.38 253.11 641.08 250.51 653.92 248.72 660.32 247.64 666.76 246.73 673.22 245.99 679.67 245.09 686.15 244.33 692.64 243.71 699.14 242.91 705.65 242.24 712.17 241.69 718.7 240.96 725.23 240.34 731.75 239.85" stroke-dasharray="11 13" transform="rotate(57.67857142857142, 711, 400)" opacity="0.14"></path><path d="M726.23 255.55C738.04 254.11 749.02 253.31 759.05 253.13 768.99 252.49 777.84 252.66 785.47 253.66 795.95 255.35 810.01 263.68 813.96 270.44 816.53 275.4 818.51 281.38 820.27 288.29 823.15 295.32 826.5 303.23 830.61 311.89 836.52 320.62 843.49 330.03 851.37 339.98 860.69 349.96 870.25 360.43 879.3 371.28 888.11 382.13 894.66 392.86 898.53 403.38 900.67 413.95 899.66 424.39 895.72 434.67 889.98 445.1 881.77 455.49 871.67 465.8 860.64 476.4 848.46 487.04 835.7 497.64 822.83 508.58 809.83 519.49 796.99 530.21 784.42 541.13 772.09 551.68 760.1 561.56 748.36 571.27 736.83 579.94 725.55 587.2 714.36 593.74 703.29 598.45 692.41 600.97 681.52 602.31 671.3 601.24 661.8 597.97 652.3 593.66 643.57 587.4 635.69 579.55 627.82 571.07 620.82 561.36 614.75 550.78 608.62 540.01 603.33 528.65 598.85 516.98 594.08 505.39 589.9 493.62 586.25 481.85 581.98 470.24 577.98 458.62 574.19 447.1 569.57 435.7 565.06 424.34 560.78 413.08 555.8 401.88 551.25 390.72 547.43 379.71 543.51 368.7 540.98 358.34 539.96 348.68 539.49 339.01 540.82 330.07 543.85 321.93 547.71 313.81 553.24 306.5 560.23 300.09 567.89 293.68 576.78 288.14 586.6 283.53 596.8 278.84 607.71 274.99 619.06 271.99 630.54 268.75 642.35 266.24 654.29 264.43 666.25 262.18 678.33 260.49 690.36 259.36 702.41 257.61 714.43 256.32 726.23 255.55" stroke-dasharray="5 9" transform="rotate(61.07142857142858, 711, 400)" opacity="0.90"></path><path d="M718.79 271.26C729.34 269.93 739.04 269.21 747.8 269.07 756.49 268.54 764.17 268.73 770.76 269.67 779.93 271.18 792.95 278.49 797.33 284.38 800.41 288.66 803.18 293.85 805.88 299.87 809.6 305.97 813.75 312.88 818.5 320.5 824.67 328.17 831.58 336.51 839.07 345.42 847.61 354.33 856.19 363.79 864.21 373.69 872.04 383.6 877.96 393.5 881.64 403.32 884.02 413.18 883.77 423.02 881.05 432.78 876.86 442.66 870.48 452.55 862.33 462.38 853.27 472.43 842.99 482.49 831.94 492.46 820.62 502.66 808.93 512.76 797.2 522.58 785.54 532.49 773.97 541.98 762.66 550.77 751.49 559.35 740.54 566.96 729.88 573.27 719.3 578.97 708.94 583.07 698.89 585.27 688.83 586.52 679.51 585.68 670.95 582.95 662.37 579.36 654.55 574.07 647.53 567.34 640.47 560.06 634.18 551.63 628.68 542.35 623.04 532.83 618.08 522.69 613.78 512.18 609.13 501.66 604.96 490.89 601.19 480.06 596.84 469.32 592.71 458.52 588.78 447.81 584.14 437.18 579.64 426.6 575.4 416.15 570.58 405.75 566.2 395.44 562.52 385.34 558.73 375.23 556.2 365.78 555 357.03 554.24 348.26 555.04 340.2 557.35 332.89 560.34 325.57 564.84 319.01 570.66 313.25 577.09 307.45 584.68 302.43 593.19 298.22 602.1 293.89 611.73 290.3 621.84 287.45 632.16 284.36 642.82 281.9 653.64 280.08 664.54 277.86 675.54 276.15 686.45 274.98 697.4 273.27 708.24 272.01 718.79 271.26" stroke-dasharray="9 16" transform="rotate(64.46428571428572, 711, 400)" opacity="0.17"></path><path d="M710.36 286.96C719.67 285.75 728.19 285.12 735.86 285.04 743.49 284.61 750.25 284.84 756.1 285.73 764.41 287.13 777.16 293.6 782.16 298.76 785.79 302.46 789.26 306.96 792.75 312.22 797.1 317.5 801.8 323.52 806.92 330.22 813.12 336.93 819.79 344.28 826.76 352.21 834.48 360.13 842.1 368.61 849.13 377.59 856.01 386.56 861.28 395.62 864.72 404.68 867.18 413.78 867.51 422.92 865.78 432.03 862.91 441.24 858.14 450.48 851.78 459.67 844.6 469 836.21 478.32 826.98 487.51 817.38 496.83 807.26 505.99 796.91 514.82 786.52 523.66 776.05 532.05 765.72 539.75 755.45 547.23 745.33 553.81 735.48 559.23 725.69 564.14 716.12 567.67 706.89 569.57 697.67 570.71 689.16 570.09 681.4 567.84 673.61 564.9 666.51 560.49 660.14 554.82 653.68 548.67 647.89 541.46 642.76 533.45 637.44 525.2 632.67 516.32 628.42 507.02 623.82 497.68 619.59 488.03 615.69 478.26 611.28 468.52 607.06 458.69 603.04 448.91 598.44 439.18 594.01 429.48 589.87 419.92 585.28 410.39 581.12 400.98 577.6 391.79 574 382.59 571.51 374.03 570.19 366.13 569.19 358.22 569.55 350.96 571.21 344.39 573.41 337.8 576.93 331.88 581.63 326.68 586.85 321.42 593.14 316.83 600.29 312.95 607.82 308.94 616.07 305.57 624.82 302.85 633.79 299.89 643.14 297.49 652.67 295.66 662.31 293.47 672.06 291.77 681.73 290.56 691.46 288.9 701.06 287.68 710.36 286.96" stroke-dasharray="18 9" transform="rotate(67.85714285714286, 711, 400)" opacity="0.51"></path><path d="M702.02 302.66C710.12 301.57 717.57 301.03 724.33 301 734.09 300.82 750.21 303.13 756.77 305.76 763.1 308.92 774.8 318.64 780.86 325.18 785.59 329.75 790.57 334.99 795.8 340.84 801.82 346.69 808.08 353.15 814.44 360.15 821.3 367.15 827.96 374.7 834.04 382.75 840.01 390.8 844.64 398.98 847.77 407.22 850.21 415.48 850.93 423.83 849.98 432.18 848.17 440.6 844.77 449.04 839.99 457.44 834.53 465.92 827.94 474.35 820.49 482.62 812.67 490.95 804.24 499.08 795.46 506.85 786.55 514.59 777.45 521.86 768.34 528.48 759.23 534.89 750.17 540.5 741.3 545.08 732.45 549.26 723.79 552.25 715.42 553.87 707.05 554.9 699.32 554.45 692.26 552.63 685.15 550.28 678.66 546.66 672.78 541.96 666.8 536.87 661.36 530.83 656.46 524.04 651.37 517.04 646.71 509.42 642.46 501.39 637.89 493.26 633.62 484.81 629.62 476.19 625.2 467.56 620.96 458.81 616.94 450.06 612.45 441.34 608.18 432.62 604.2 424.02 599.89 415.44 595.99 406.97 592.69 398.7 589.32 390.44 586.92 382.75 585.52 375.66 584.37 368.56 584.36 362.05 585.45 356.16 586.96 350.23 589.6 344.89 593.26 340.18 597.33 335.4 602.36 331.2 608.18 327.61 614.33 323.89 621.16 320.71 628.49 318.1 636.03 315.28 643.96 312.94 652.11 311.12 660.37 309 668.77 307.31 677.15 306.1 685.57 304.51 693.91 303.35 702.02 302.66" stroke-dasharray="8 10" transform="rotate(71.25, 711, 400)" opacity="0.70"></path><path d="M694.8 318.36C701.77 317.4 708.25 316.95 714.22 316.97 722.92 316.91 737.97 319.16 744.52 321.56 751.02 324.39 763.61 332.9 770.12 338.59 774.98 342.55 779.97 347.1 785.07 352.19 790.7 357.26 796.42 362.88 802.08 369.01 808.07 375.14 813.79 381.77 818.96 388.89 824.05 396 828.04 403.28 830.82 410.62 833.14 417.99 834.09 425.45 833.7 432.92 832.72 440.43 830.43 447.96 826.99 455.42 823.03 462.93 818.05 470.37 812.28 477.62 806.17 484.88 799.44 491.92 792.27 498.6 784.96 505.21 777.35 511.38 769.61 516.96 761.84 522.35 754.01 527.03 746.25 530.83 738.51 534.31 730.85 536.81 723.39 538.17 715.92 539.08 708.98 538.78 702.57 537.34 696.13 535.5 690.17 532.6 684.71 528.78 679.15 524.65 674.01 519.71 669.3 514.09 664.41 508.29 659.85 501.91 655.62 495.13 651.13 488.25 646.88 481.03 642.87 473.61 638.53 466.17 634.37 458.56 630.44 450.92 626.16 443.29 622.11 435.63 618.38 428.06 614.4 420.49 610.81 413.01 607.77 405.69 604.67 398.37 602.41 391.56 601.01 385.27 599.62 376.07 601.96 360.22 605.63 353.56 610.61 347.31 624.66 337.14 633.32 333.16 639.42 330.49 645.93 328.25 652.68 326.45 659.53 324.42 666.56 322.79 673.63 321.59 680.73 320.1 687.83 319 694.8 318.36" stroke-dasharray="3 15" transform="rotate(74.64285714285714, 711, 400)" opacity="0.99"></path><path d="M689.63 334.06C698.32 333.05 714.1 332.98 721.21 333.94 730.67 335.12 739.32 338.33 747.3 343.41 756.34 348.27 765.51 355.19 774.63 363.97 779.72 368.33 784.77 373.17 789.67 378.46 794.77 383.74 799.57 389.48 803.88 395.65 808.13 401.82 811.48 408.14 813.88 414.53 815.98 420.93 817.03 427.42 817.04 433.91 815.83 446.95 810.59 460.02 802.27 472.35 792.92 484.62 781.38 495.89 768.82 505.16 762.46 509.58 755.95 513.39 749.4 516.47 742.85 519.32 736.28 521.35 729.79 522.47 723.3 523.26 717.17 523.07 711.44 521.96 705.68 520.57 700.27 518.31 695.23 515.28 684.92 508.56 675.72 499.18 667.68 488.14 658.86 476.76 650.71 464.15 643.52 451.19 639.56 444.71 635.83 438.16 632.41 431.66 628.82 425.16 625.6 418.7 622.86 412.36 619.04 403.05 615.14 386.55 615.17 379.36 616.31 369.97 620.53 362.19 627.26 356.2 634.7 349.8 644.24 344.89 654.99 341.63 660.47 339.72 666.17 338.18 671.98 337.02 677.82 335.65 683.73 334.65 689.63 334.06" stroke-dasharray="8 3" transform="rotate(78.03571428571428, 711, 400)" opacity="0.17"></path><path d="M687.16 349.76C696.92 348.22 706.11 348.34 714.52 349.94 723.14 351.12 731.38 353.99 739.19 358.4 747.69 362.6 756.21 368.5 764.4 375.93 773.37 383.28 781.83 392.25 788.79 402.65 795.59 413.05 799.36 423.97 800.05 434.84 799.78 445.74 796.39 456.57 790.49 466.66 783.87 476.66 775.26 485.73 765.48 493.07 755.51 499.97 744.74 504.79 733.82 506.77 722.9 507.89 712.82 505.93 703.78 501.48 694.55 496.37 686.06 489.09 678.45 480.35 670.34 471.34 662.8 461.18 656.17 450.58 648.96 439.94 642.66 428.99 637.94 418.32 633.1 407.65 630.7 398.22 630.64 390.22 631.02 382.11 633.85 375.28 638.72 369.88 644.04 364.18 651.16 359.7 659.48 356.63 667.98 353.03 677.39 350.63 687.16 349.76" stroke-dasharray="20 5" transform="rotate(81.42857142857143, 711, 400)" opacity="0.10"></path><path d="M687.69 365.46C695.51 364.24 703.22 364.44 710.57 365.87 718.07 367.01 725.45 369.5 732.53 373.22 740 376.78 747.38 381.68 754.28 387.77 761.59 393.8 768.3 401.09 773.71 409.51 779.01 417.92 782.05 426.69 782.84 435.37 783.1 444.04 781.06 452.57 777.09 460.43 772.69 468.2 766.61 475.14 759.38 480.7 752.01 485.94 743.73 489.58 734.97 491.06 726.21 492.01 717.81 490.64 710.02 487.37 702.13 483.68 694.67 478.29 687.87 471.7 680.78 464.91 674.18 457.12 668.39 448.85 662.28 440.54 656.99 431.86 653.03 423.26 648.98 414.66 646.85 406.92 646.52 400.25 646.41 393.5 648.17 387.7 651.53 383.01 655.13 378.12 660.2 374.19 666.38 371.43 672.65 368.32 679.87 366.24 687.69 365.46" stroke-dasharray="5 0" transform="rotate(84.82142857142857, 711, 400)" opacity="0.30"></path><path d="M691.17 381.16C703 379.12 715.57 381.7 727 387.74 739.17 393.39 750.79 403.07 758.62 415.82 766.22 428.57 767.14 442.13 762.33 453.55 756.68 464.69 746.18 473 733.1 475.36 720.01 476.55 706.96 471.29 695.93 462.15 684.38 452.53 674.23 439.86 668.11 426.88 661.81 413.9 661.3 403 665.6 395.48 670.27 387.48 679.33 382.18 691.17 381.16" stroke-dasharray="18 4" transform="rotate(88.21428571428572, 711, 400)" opacity="0.36"></path><path d="M697.14 396.86C705.15 395.58 714.07 397.53 722.24 401.84 730.66 405.94 738.47 412.67 743.54 421.25 748.5 429.82 749.31 438.67 746.53 445.93 743.45 453.04 737.06 458.25 728.43 459.66 719.8 460.57 710.67 457.41 702.72 451.71 694.62 445.78 687.5 437.66 683.2 428.99 678.81 420.3 678.21 412.69 680.78 407.22 683.43 401.53 689.13 397.68 697.14 396.86" stroke-dasharray="19 20" transform="rotate(91.60714285714286, 711, 400)" opacity="0.56"></path></g></svg>